# xmcd CD database file
#
# Track frame offsets:
#	150
#	13256
#	25012
#	38947
#	52521
#	66951
#	82573
#	95785
#	109575
#	122855
#	135730
#	150930
#	163293
#	176413
#	189701
#	201038
#
# Disc length: 3337 seconds
#
# Revision: 1
# Processed by: cddbd v1.5.2PL0 Copyright (c) Steve Scherf et al.
# Submitted via: CDex 1.70beta2
#
DISCID=c90d0710
DTITLE=Various Artist - Death, Disaster and Despair Country-Style (WFMU Antique Phonograph Program Premium)
DYEAR=2007
DGENRE=Country
TTITLE0=Mack Allen- The Alabama Flood
TTITLE1=Frankie Wallace- Hobo Bill's Last Ride
TTITLE2=Ernest Thompson- Lightening Express
TTITLE3=Harry Whittier- The Wreck of the Old Southern 97
TTITLE4=Kelly Harrell- Butcher's Boy
TTITLE5=Ernest Stoneman- Bury Me Beneath the Weeping Willow Tree
TTITLE6=Charles Nabell- The Last Round-up
TTITLE7=Frank Evans- The Sinking of the Vestris
TTITLE8=Vernon Dalhart- The Song of the Shut-in
TTITLE9=Whitey John- Little Old Sod Shanty
TTITLE10=Ernest Stoneman- Two Little Orphans
TTITLE11=Oliver Moore- The Drunkards Doom
TTITLE12=Bob Fagan- She Was a Moonshiner's Daughter
TTITLE13=George Reneau- Little Rosewood Casket
TTITLE14=Lester McFarland and Robert Gardner- The Last Mile of the Way
TTITLE15=Unknown
EXTD=YEAR: 2007
EXTT0=
EXTT1=
EXTT2=
EXTT3=
EXTT4=
EXTT5=
EXTT6=
EXTT7=
EXTT8=
EXTT9=
EXTT10=
EXTT11=
EXTT12=
EXTT13=
EXTT14=
EXTT15=
PLAYORDER=
